<?xml version="1.0" encoding="UTF-8"?>
<svg version="1.1" viewBox="0 0 2048 2047" width="1280" height="1280" xmlns="http://www.w3.org/2000/svg">
<path transform="translate(1011,246)" d="m0 0h36l34 10 11 4 16 8 13 8 11 8 11 10v2l4 2 11 14 9 15 6 13 6 20 3 13 1 9v22l-1 13-4 17-7 22-5 13-9 17-8 10-11 12-1 7 4 6 11 13 10 11 4 6 5 4h102l231-1 9-3 14-7 20-7 11-3 21-3h28l21 3 25 8 17 8 11 7 11 8 17 16 7 10 7 9 10 18 6 14 2 8 4 13 4 34 4 7 6 8 3 7 7 26 3 12 3 21 1 18v15l-1 20-2 9-2 14-6 23-5 12-3 9-10 24-6 12-8 15-10 17-14 19-11 14-18 22-5 4-7 8-9 9h-2v2l-11 9-13 10-9 6-13 9-14 9-39 26-19 12-30 18-14 9-30 20-21 13-10 6-10 7-8 4-11 8-10 6-19 12-4 4 1 5 17 10 11 7 28 16 24 15 7 4 6-1 5-5 10-9 20-14 9-5 5-4 24-11 9-3 14-3h44l11 2 21 6 15 7 10 5 16 10 11 8 10 9 11 11 9 13 8 13 8 17 3 10 2 11 2 10 1 12v24l-2 18-4 16-6 16-8 14-7 10-11 13-7 8h-2l-1 3-11 9-5 4-13 9-16 8-16 6-10 3-16 3-16 2h-10l-26-3-20-6-11-5-13-5-15-10-11-8-9-9-7-6-9-11-8-12-8-16-8-17-6-24-1-13v-18l1-17 4-18 3-10 5-13 3-5v-8l-8-6-21-12-22-13-22-14-9-5-6-4-5 1-1 208-1 54-3 34-4 19-3 15-6 21-7 20-7 15-6 14-10 18-7 11-7 10-8 11-14 17-11 12-16 16h-2v2l-28 21-9 6-16 10-17 10-30 13-17 6-21 5-7 2-30 5-8 1-36 1-25-1-27-4-24-6-32-11-20-9-12-7-13-7-12-8-11-8-10-7-12-10-4-2v-2l-4-2-7-7-6-5v-2l-4-2-7-8-9-10-16-22-7-11-10-16-9-19-7-17-7-22-5-16-4-13-3-13-2-20-3-11-158-1-19-2-11 1-21 5-27 2h-15l-19-2-23-7-19-8-14-8-9-7-11-10-8-7-13-15-9-14-6-12-6-16-7-29-1-24-3-9-6-8-7-14-3-9-2-10-4-19v-51l2-12 2-15 3-15 7-24 9-25 7-15 6-12 9-17 7-10 11-14 10-13 9-12 11-11 2-3h2l2-4 10-10 1-7-7-7-8-7-16-16-9-10-11-13-6-9-12-16-8-13-8-17-4-8-3-10-5-11-4-13-3-11-2-10-4-19-1-14v-49l1-19 4-18 6-23 4-9 5-12 6-11 3-8 5-29 5-16 6-15 11-20 14-18h2l2-4 14-14 14-10 24-12 12-5 10-3 14-2 4-1 14-1h23l14 2 15 3 22 7 14 6 15 9 11 9 18 18 9 12 12 21 5 11 5 14 2 8 2 21v21l-3 24-6 19-4 10-8 16v7l5 4 32 20 9 6 13 8 20 12 4 3 5 2h4l1-2 1-40v-243l4-7 5-4 8-5 5 1 1 3 1 43v251l1 1h7l7-4 11-7 12-7 13-8 16-9 13-8 13-9 13-8 17-12 22-13 14-9 3-1 1-6-3-7-4-9-6-23-3-29 1-16 2-18 5-13 3-14-5-6-14-8-9-6-3-5 1-6 8-9 2-1h8l9 5 11 7 9 1 3-1 2-4 12-14 8-10h2l3-6v-6l-5-5-8-6-10-10-10-13-7-11-5-10-7-19-4-16-3-15-1-17v-13l2-17 4-14 3-10 7-17 7-13 12-16 9-10 8-8 11-8 11-7 15-8 21-7 17-5zm7 18-15 1-16 4-10 3-18 10-11 8-10 8-12 14-6 8-8 13-5 10-6 15-3 18v41l4 19 6 17 7 14 10 14 13 15 12 11 9 6 5 4 18 8 21 6 16 2h22l19-3 16-5 18-8 13-9 8-6 8-8 7-8 10-13 9-15 7-14 4-13 3-14v-39l-5-22-5-15-11-18-9-12h-2l-2-4-3-3h-2l-1-3h-2l-2-4-13-10-12-8-16-7-25-7-17-1zm93 264-23 11-21 6-16 2-5 1h-35l-12-2-12-1-21-7-6 1-9 6-9 11-13 16-2 3v6l4 4 18 10 10 7 11 6 19 12 16 9 12 6 11 7 8-1 15-9 14-8 17-10 15-10 13-8 11-7 19-12 8-6v-6l-3-5-5-5-9-11-9-10-4-5zm-649 21-12 1-18 5-21 8-16 9-10 8-11 9-8 10-9 12-10 23-6 19-3 23v12l3 23 6 18 4 10 10 19 7 11 15 15 14 9 10 6 34 13 13 3 12 1h25l18-2 19-5 22-10 16-11 10-9 10-13 6-11 5-9 6-11 7-21 2-23v-20l-2-23-4-13-5-13-7-13-12-16-9-10-14-11-10-6-15-7-16-6-8-2-10-2zm1120 1-23 4-19 7-12 6-13 8-12 10-13 13-11 15-8 17-6 15-4 20v42l4 19 7 19 5 10 7 10 9 11 12 12 8 5 7 4 11 6 22 9 14 3 12 1h20l17-2 11-3 15-5 16-8 16-9 13-12 7-7 10-14 6-10 5-12 5-10 3-9 3-18v-36l-4-19-3-10-5-11-5-10-6-8-9-11h-2l-2-4-10-9-10-7-10-6-14-6-22-7-16-3zm-382 28-18 1-16 7-20 11-11 7-15 9v2l-4 2-16 10-26 16-17 10-2 5 5 6 12 7 10 7 25 14 24 16 15 9 18 11 22 13 11 7 20 12 9 6 13 8 20 12 7 4 20 12 7 4 24 14 4 2 7-1 1-2 1-51v-11l2-12 11-10 5-3 4-1v82l1 27 6 7 17 10 11 7 15 10 24 14 21 13 15 9 10 7 15 10 14 9 13 8 14 8 35 21 22 14 17 10 13 8 21 11 4 1 6-3 25-25 7-9 7-8 6-8 8-11 12-18 9-15 9-17 7-17 4-13 6-18 3-12 3-17 1-10v-49l-1-13-2-9-2-12-3-4-4 1-9 15-8 14-7 10-10 13-8 9-8 7-15 11-12 7-16 8-16 6-16 4-16 2h-27l-19-3-18-6-24-13-5-3-18-12-11-10-11-14-11-20-9-22-5-12-3-11v-34l2-13 3-16 5-17 7-18 10-16 10-13-1-4-3-1zm-288 25-7 11-4 14-1 13v26l1 10 7 19 7 11 3 2 7-1 11-6 13-8 24-15 10-5 11-8 9-6v-7l-6-5-11-6-10-6-15-10-9-5-24-13-9-5zm99 78-9 6-11 6-10 6-18 11-7 5-12 6-14 8-13 8-14 9-10 7-20 12-13 8-14 9-29 17-11 7-23 14-18 12-17 10-1 1v6l4 4 13 8 19 11 27 16 29 17 34 22 12 8 14 8 9 6 11 7 12 6 17 10 7 1 6-3 11-10 7-4 13-8 13-6 10-4 3-2 1-3v-250l-1-2zm32-1-4 2-1 3v60l1 189 5 5 12 5 9 4 15 9 10 7 11 9 3 3 5 1 10-5 16-9 13-8 15-10 16-10 30-20 20-12 7-5 11-6 24-15 12-7 21-13 8-6 1-1-1-7-8-6-9-6-9-5-9-6-11-7-19-11-11-6-14-8-10-6-21-13-24-15-11-7-26-16-19-11-12-6-15-10-17-10-11-7-9-6zm-724 46-4 6-4 16-2 20-1 9v42l4 31 3 17 5 16 4 13 8 21 8 15 10 16 7 11 10 13 11 14 8 7 9 9 9 6 9 8 4 2h8l10-6 9-6 8-4 9-6 11-8 24-16 20-12 9-6 11-6 21-13 15-9 10-7 11-7 10-7 18-11 9-6 16-9 6-4 9-5 13-8 10-7 6-4 1-1v-7l-9-6-13-8-10-7-26-16-15-8-10-6-7-3h-7l-19 14-11 7-17 10-13 5-12 5-16 4-18 2h-21l-22-3-20-6-17-7-16-11-14-9-12-9-10-10-8-11-9-14-13-27-2-3zm381 144-10 6-11 8-15 9-17 11-15 9-9 5-17 10-10 7-32 20-9 6-11 6-15 9-13 8-39 26-6 3-13 8-12 8-4 4 2 5 10 7 13 8 9 6 16 11 15 10 13 7 11 7 9 6 9 5 11 7 13 8 14 9 13 8 16 10 15 8 11 6 14 8 12 8 17 11 14 10h6l3-4v-321l-2-3zm35 0-4 4v324l3 4 8-1 9-6 15-9 21-13 17-10 11-6 18-11 13-9 14-9 16-10 6-3 13-8 14-9 9-6 10-7 9-6 6-6-1-9-4-18v-28l3-15v-9l-5-5-15-10-19-12-23-13-14-8-24-14-10-7-12-8-16-10-16-8-18-10-18-11-5-4-9-4zm621 2-3 3-1 257 1 67 3 3 6-1 10-7 16-10 15-10 10-7 18-11 27-16 12-8 17-11 10-6 10-7 14-8 11-7 15-9 14-9 17-12 18-12 16-11 4-4-1-5-11-8-18-10-19-12-12-7-14-9-9-6-10-5-10-7-16-9-11-7-23-15-14-9-20-12-18-10-13-9-17-10-8-6-11-7zm-32 0-9 4-20 12-17 11-26 15-11 7-13 8-17 11-11 7-8 5-11 6-17 10-20 13-7 4-8 6-6 3-4 5 1 16 2 10-1 12-2 16-4 15 2 6 14 10 16 10 11 7 22 13 25 15 9 6 18 11 13 8 27 15 16 10 20 12 11 7 5 3 4-2 1-1 1-58v-261l-2-5zm-305 87-14 4-9 4-10 6v2l-4 2-5 4-7 10-4 6-6 15-2 14v13l3 16 7 16 8 9 5 5 11 8 14 7 12 3 13 1 13-1 16-6 8-5 13-11 10-13 6-14 3-15v-17l-3-16-4-10-7-12-5-6-10-7-11-6-21-6zm-601 93-6 4-10 10-8 7-11 11-9 11-10 13-8 11-8 12-5 10-9 17-5 12-5 15-3 10-5 25-2 9-3 15-1 22v18l2 27 3 16 4 6 5-3 11-23 7-14 12-16 8-8 13-10 9-6 16-11 14-7 16-5 17-3 17-2 26 1 15 4 16 6 15 7 21 12 11 8 10 9 10 10 10 15 6 10 5 11 9 21 3 13 1 9v29l-2 13-3 13-6 17-4 10-10 19-9 13-8 11-11 9-3 3 1 5 79 2h34l24-1 3-2 1-3 1-90 4-1h13l3 2 2 87 4 6 19 1 42 1h60l11-4 21-12 19-12 51-30 14-9 7-4 15-9 7-4 4-4v-6l-14-10-7-4-14-9-10-6-6-4-11-6-13-8-22-14-16-10-9-6-22-13-25-15-12-8-15-9-19-11-16-9-21-13-9-6-6-3h-5l-2 2-1 7v43l-2 8-12 9-4 2-4-1-1-2 1-31v-39l-1-12-3-6-8-6-15-9-15-10-10-6-19-12-21-13-24-15-14-9-11-7-11-8-8-5-10-6-18-10-22-14-6-3-15-10-17-10-11-7-11-6-13-8zm682 41-7 4-17 12-10 6-13 6-24 3-18-2-14-5-14-7-14-9-7-5h-9l-16 8-15 9-11 7-8 5-14 9-16 10-26 16-19 11-29 17-11 7-8 6-12 8-17 11-2 3 1 5 9 6 13 8 20 12 22 13 26 16 24 15 11 7 20 12 19 12 40 24 19 11 15 9 12 8 11 7h4l2-4 1-11v-33l2-9 7-6 2-1h8l1 67 2 4h6l22-14 16-10 13-8 11-7 9-5 15-9 14-9 12-9 11-6 17-10 15-9 13-8 15-10 8-4 5-3 22-14 26-16 1-2 10-5 11-8 2-2v-5l-9-7-10-6-30-20-11-7-16-9-23-13-23-14-9-6-15-9-11-7-12-8-11-6-13-8-15-8zm474 151-22 4-19 6-16 8-12 8-5 4v2l-4 2-12 12-10 15-9 17-4 11-6 24-1 9v25l3 17 5 18 7 16 6 11 10 14 13 13 14 10 11 7 19 9 17 6 18 3h28l17-4 17-6 9-4 15-9 10-8 12-11 12-14 10-14 8-17 4-10 4-15 1-8v-33l-2-12-3-12-10-22-7-12-13-17-10-10-11-8-15-10-16-6-16-5-21-4zm-1120 2-19 3-13 4-13 5-12 6-10 7-11 9-9 9-7 10-10 19-6 14-6 19-3 19-1 16 2 16 3 15 9 23 6 10 8 11 8 9 8 7 10 8 20 12 13 6 18 6 13 3 10 1h12l16-1 15-4 17-6 21-12 12-9 5-4 7-8 9-11 6-11 8-16 6-16 3-14 1-10v-22l-2-16-3-14-6-18-6-12-6-9-10-14-13-12-17-11-12-6-19-7-16-3-13-1zm870 3-21 12-10 7-12 7-10 6-16 9-9 6-22 14-14 9-21 13-14 8-14 9-2 2v7l9 17 4 11 3 13v36l-4 19-8 20 1 6 9 7 16 11 9 6 2 3v5l-6 8-7 1-11-5-14-8-12-7h-7l-4 3v2h-2l-7 9-4 2-5-1-11-7-5-4v-7l3-3v-2l3-1v-2l3-1 2-3v-5l-9-8-18-11-14-10-13-7-16-9-10-6h-7l-11 6-16 9-14 8-16 10-13 8-15 9-16 9-21 13-22 13-15 7-7 2-81 1-43 1-3 3v14l2 16 3 16 5 17 2 9 12 30 6 12 6 11 9 15 8 11 14 17 9 10 8 9 8 7 3 3h2l1 3 13 10 9 7 10 7 13 8 17 10 23 11 23 9 22 6 17 4 25 3h42l21-2 12-2 13-3 26-7 25-9 15-8 12-6 14-8 10-7 12-8 11-10 14-11 8-8v-2l3-1 9-11 12-14 14-20 13-22 9-17 10-24 5-16 4-15 4-20 3-17 1-27 1-10 1-57v-188l-2-4zm-191 116-28 16-11 7-15 10-15 9-6 5v5l8 6 16 9 28 18 11 6 16 9 5-1 4-5 4-9 3-9 2-15v-17l-3-15-4-12-7-14-3-3z" fill="#141D24"/>
<path transform="translate(1011,246)" d="m0 0h36l34 10 11 4 16 8 13 8 11 8 11 10v2l4 2 11 14 9 15 6 13 6 20 3 13 1 9v22l-1 13-4 17-7 22-5 13-9 17-8 10-11 12-1 7 4 6 11 13 10 11 4 6 5 4h102l231-1 9-3 14-7 20-7 11-3 21-3h28l21 3 25 8 17 8 11 7 11 8 17 16 7 10 7 9 10 18 6 14 2 8 4 13 4 34 4 7 6 8 3 7 7 26 3 12 3 21 1 18v15l-1 20-2 9-2 14-6 23-5 12-3 9-10 24-6 12-8 15-10 17-14 19-11 14-18 22-5 4-7 8-9 9h-2v2l-11 9-13 10-9 6-13 9-14 9-39 26-19 12-30 18-14 9-30 20-21 13-10 6-10 7-8 4-11 8-10 6-19 12-4 4 1 5 17 10 11 7 28 16 24 15 7 4 6-1 5-5 10-9 20-14 9-5 5-4 24-11 9-3 14-3h44l11 2 21 6 15 7 10 5 16 10 11 8 10 9 11 11 9 13 8 13 8 17 3 10 2 11 2 10 1 12v24l-2 18-4 16-6 16-8 14-7 10-11 13-7 8h-2l-1 3-11 9-5 4-13 9-16 8-16 6-10 3-16 3-16 2h-10l-26-3-20-6-11-5-13-5-15-10-11-8-9-9-7-6-9-11-8-12-8-16-8-17-6-24-1-13v-18l1-17 4-18 3-10 5-13 3-5v-8l-8-6-21-12-22-13-22-14-9-5-6-4-5 1-1 208-1 54-3 34-4 19-3 15-6 21-7 20-7 15-6 14-10 18-7 11-7 10-8 11-14 17-11 12-16 16h-2v2l-28 21-9 6-16 10-17 10-30 13-17 6-21 5-7 2-30 5-8 1-36 1-25-1-27-4-24-6-32-11-20-9-12-7-13-7-12-8-11-8-10-7-12-10-4-2v-2l-4-2-7-7-6-5v-2l-4-2-7-8-9-10-16-22-7-11-10-16-9-19-7-17-7-22-5-16-4-13-3-13-2-20-3-11-158-1-19-2-11 1-21 5-27 2h-15l-19-2-23-7-19-8-14-8-9-7-11-10-8-7-13-15-9-14-6-12-6-16-7-29-1-24-3-9-6-8-7-14-3-9-2-10-4-19v-51l2-12 2-15 3-15 7-24 9-25 7-15 6-12 9-17 7-10 11-14 10-13 9-12 11-11 2-3h2l2-4 10-10 1-7-7-7-8-7-16-16-9-10-11-13-6-9-12-16-8-13-8-17-4-8-3-10-5-11-4-13-3-11-2-10-4-19-1-14v-49l1-19 4-18 6-23 4-9 5-12 6-11 3-8 5-29 5-16 6-15 11-20 14-18h2l2-4 14-14 14-10 24-12 12-5 10-3 14-2 4-1 14-1h23l14 2 15 3 22 7 14 6 15 9 11 9 18 18 9 12 12 21 5 11 5 14 2 8 2 21v21l-3 24-6 19-4 10-8 16v7l5 4 32 20 9 6 13 8 20 12 4 3 5 2h4l1-2 1-40v-243l4-7 5-4 8-5 5 1 1 3 1 43v251l1 1h7l7-4 11-7 12-7 13-8 16-9 13-8 13-9 13-8 17-12 22-13 14-9 3-1 1-6-3-7-4-9-6-23-3-29 1-16 2-18 5-13 3-14-5-6-14-8-9-6-3-5 1-6 8-9 2-1h8l9 5 11 7 9 1 3-1 2-4 12-14 8-10h2l3-6v-6l-5-5-8-6-10-10-10-13-7-11-5-10-7-19-4-16-3-15-1-17v-13l2-17 4-14 3-10 7-17 7-13 12-16 9-10 8-8 11-8 11-7 15-8 21-7 17-5zm-3 4-25 7-18 7-17 9-19 14-12 12-14 19-8 15-7 19-6 20-1 10v25l1 15 6 23 8 22 7 13 12 17 14 14 10 7 2 4v6l-6 9-5 5-12 13-7 9-4 3h-6l-13-7-7-5-3-1h-8l-7 8 1 5 9 7 17 10 3 6-2 13-3 10-3 8-2 15v23l3 24 6 22 6 10 1 9-5 6-15 9-14 8-12 8-16 11-34 22-15 8-14 8v2l-6 2-15 9-9 6-5 2h-8l-2-4v-292l-2-2h-5l-7 6-3 4-1 4v279l-3 6-6 1-8-4-11-7-22-13-23-15-8-5h-2v-2l-9-5-7-5-2-5 1-5 6-13 7-16 3-9 2-9 2-6v-44l-1-14-7-21-8-16-6-9-5-9-6-8h-2l-2-4-19-19-13-8-16-8-16-6-13-4-16-3-10-1h-22l-16 1-21 4-20 8-16 8-11 7-8 6-4 5-2 1v2h-2l-7 8-10 11-8 13-6 10-7 16-3 9-3 13-2 11-5 21-10 20-6 14-5 21-2 6-3 16-1 22v33l1 19 4 21 2 6 4 20 9 22 5 14 8 14 4 9 7 11 7 9 18 24 7 7 1 2h2l2 4 10 10h2l2 4 13 12h2l2 5-1 7-9 10-12 12-7 8v2h-2l-10 14-7 9-10 13-10 15-10 19-10 22-7 19-6 18-3 12-4 22-3 22v42l5 24 3 14 8 16 7 10 2 4 2 31 4 15 3 11 6 18 10 18 9 10 7 9 8 7 3 3h2l1 3 10 8 11 7 15 8 17 5 13 5 21 2h16l29-2 5-2 10-2 2-1h19l29 2h136l6 2 3 4 3 11 1 15 4 18 5 13 5 19 9 25 10 23 14 22 10 15 14 18 7 8 5 6h2l2 4 13 12h2v2l11 8 3 1v2l17 12 11 8 10 7 16 8 7 5 23 9 10 4 17 5 15 5 14 3 21 3 14 1h39l12-1 12-2 11-2 17-3 12-4 12-2 9-3 10-4 11-5 11-4 5-3 11-6 16-10 10-7 11-7 11-9 2-1v-2l5-2 8-8 8-7 14-14 8-10 6-8 10-13 6-9 7-11 5-9 8-16 5-11 6-15 7-19 4-12 2-10 3-16 2-6 3-28 1-31 1-65v-160l1-18 3-5 8 1 10 7 10 6 28 17 20 12 15 8 3 1v2h2l1 3v8l-6 12-5 16-5 23v41l6 24 8 18 8 15 5 9 8 10 6 7 5 4 5 5 9 8 18 11 12 6 15 6 13 4 8 2 16 1h22l21-3 10-2 23-9 18-10 8-6 9-7 16-16 11-14 10-15 4-8 6-17 4-18 2-14-1-28-6-32-6-14-6-10-4-8-14-18-8-8-14-11-16-11-9-5-8-4-20-8-8-3-17-3h-40l-18 4-8 3-19 9-8 6-12 6-10 8-9 6-8 8v2l-4 2-6 2-12-6-22-14-15-8-3-3-14-7h-2v-2l-16-9-9-6-1-6 3-5 7-5 9-5 11-7 15-10 14-9 7-5 10-5 22-14 13-9 10-6 14-10 16-9 26-16 22-14 11-8 19-12 11-8 10-6 15-11 9-6 10-9 11-9 7-8 11-12 12-14 12-16 1-3h2l14-21 9-16 11-20 5-11 6-15 9-25 5-16 4-27 1-11v-26l-2-26-4-19-4-16-5-16-4-6-4-5-3-5-1-4-2-22-3-14-6-20-8-16-4-7-6-9-12-16-8-8-8-7-8-6-13-8-14-7-29-9-14-2h-34l-13 2-23 6-17 6-15 8-19 1h-205l-111 1-7-3-7-8-9-12-7-7-7-8-3-7 3-9 5-5 9-10 7-10 9-19 5-14 7-28 2-17v-17l-2-13-4-16-5-16-8-16-7-11-11-13-11-11-10-8-13-8-12-6-16-7-27-8-6-2z" fill="#384046"/>
<path transform="translate(417,1048)" d="m0 0h6l10 5 14 9 15 9 16 9 13 9 29 17 11 7 16 9 30 20 22 14 13 8 16 10 13 8 19 12 2 1v2l6 2 15 10 21 13 5 6 2 7v77l2 1 5-3 7-5 3-9v-16l-1-8v-18l3-10 1-1h7l9 5 16 10 18 11 9 5 13 7 9 5 14 9 15 10 11 6 6 4 11 6 13 8 11 7 14 9 19 12 26 16 6 3 21 13 10 7 11 7 5 3 4 5v7l-7 7-6 3-13 7-13 8-14 9-11 7-9 5-14 8-9 6-8 4-11 7-9 6h-3v2l-12 7-11 4h-97l-27-1-5-4-2-6-1-37-1-17v-24l-1-7-1-1h-9l-3 1-1 89-3 5-5 2h-91l-46-1-4-3v-7l4-5 8-6h2l2-4 9-11 8-12 11-23 7-18 3-9 3-24v-15l-2-21-4-15-5-9-4-10-8-14-12-18-16-16-12-8-15-9-14-7-21-9-8-3-17-2h-22l-23 3-24 8-11 6-19 13-13 9-7 7-8 7-10 15-5 10-5 11-8 16-4 3-5-1-4-5-3-12-3-30v-32l2-21 5-23 2-10 4-16 5-16 7-17 11-21 7-11 10-15 12-15 9-11 4-2 2-4 9-9h2l2-4 12-11zm1 4-6 4-10 10-8 7-11 11-9 11-10 13-8 11-8 12-5 10-9 17-5 12-5 15-3 10-5 25-2 9-3 15-1 22v18l2 27 3 16 4 6 5-3 11-23 7-14 12-16 8-8 13-10 9-6 16-11 14-7 16-5 17-3 17-2 26 1 15 4 16 6 15 7 21 12 11 8 10 9 10 10 10 15 6 10 5 11 9 21 3 13 1 9v29l-2 13-3 13-6 17-4 10-10 19-9 13-8 11-11 9-3 3 1 5 79 2h34l24-1 3-2 1-3 1-90 4-1h13l3 2 2 87 4 6 19 1 42 1h60l11-4 21-12 19-12 51-30 14-9 7-4 15-9 7-4 4-4v-6l-14-10-7-4-14-9-10-6-6-4-11-6-13-8-22-14-16-10-9-6-22-13-25-15-12-8-15-9-19-11-16-9-21-13-9-6-6-3h-5l-2 2-1 7v43l-2 8-12 9-4 2-4-1-1-2 1-31v-39l-1-12-3-6-8-6-15-9-15-10-10-6-19-12-21-13-24-15-14-9-11-7-11-8-8-5-10-6-18-10-22-14-6-3-15-10-17-10-11-7-11-6-13-8z" fill="#384046"/>
<path transform="translate(1204,574)" d="m0 0h270l5 3 2 5-15 20-7 12-7 19-6 19-3 21-1 24 1 16 4 12 13 30 9 17 11 13 5 5v2l4 2 9 7 9 6 10 5 7 5 14 7 18 6 27 3h11l12-2 13-1 5-2 8-2 16-6 9-3v-2l10-5 11-7 13-10 4-2 1-3 8-7 9-13 8-11 11-20 8-11 3-2 4 1 3 4 3 9 2 12 1 4 1 22v25l-1 25-2 7-2 12-4 15-11 33-5 11-6 13-8 14-9 14-10 14-12 16-7 8-9 11-23 23-4 3h-9l-22-12-13-8-2-1v-2l-5-1-14-8-5-4-10-6-9-6-9-5-16-10-11-6-5-3-10-5-8-6-16-10-14-10-14-9-12-7v-2l-5-1-11-7-17-10-7-4-10-7-12-8-17-10-8-6-3-5-1-2-1-40v-31l1-16v-16l-9 6-5 6-1 3-1 68-4 6-1 1h-7l-11-6-18-10-9-6-22-12-13-8-23-14-9-6-11-7-16-9-14-9-28-17-15-9-11-7-10-7-22-13-18-11-9-6-8-5-3-7 3-6 9-6 19-11 9-5 9-7 10-5 12-9 16-10 9-6 19-10 13-6 4-1zm-4 4-18 1-16 7-20 11-11 7-15 9v2l-4 2-16 10-26 16-17 10-2 5 5 6 12 7 10 7 25 14 24 16 15 9 18 11 22 13 11 7 20 12 9 6 13 8 20 12 7 4 20 12 7 4 24 14 4 2 7-1 1-2 1-51v-11l2-12 11-10 5-3 4-1v82l1 27 6 7 17 10 11 7 15 10 24 14 21 13 15 9 10 7 15 10 14 9 13 8 14 8 35 21 22 14 17 10 13 8 21 11 4 1 6-3 25-25 7-9 7-8 6-8 8-11 12-18 9-15 9-17 7-17 4-13 6-18 3-12 3-17 1-10v-49l-1-13-2-9-2-12-3-4-4 1-9 15-8 14-7 10-10 13-8 9-8 7-15 11-12 7-16 8-16 6-16 4-16 2h-27l-19-3-18-6-24-13-5-3-18-12-11-10-11-14-11-20-9-22-5-12-3-11v-34l2-13 3-16 5-17 7-18 10-16 10-13-1-4-3-1z" fill="#384046"/>
<path transform="translate(1324,1245)" d="m0 0 6 2 3 5v241l-3 48-3 15-3 13-5 21-6 18-9 21-9 19-5 8-6 10-8 11-6 10h-2l-2 4-5 6h-2l-2 5-12 13-11 12-7 5-4 4-8 7-15 11-10 6-8 6-16 8-11 6-5 2-8 4-20 7-8 2-1 1-9 2-12 2-5 2-20 4-22 2h-35l-26-3-26-6-26-8-13-5-17-9-16-8-16-9-8-5-10-8-15-11v-2l-4-2-8-7-10-9-14-15-7-9-12-15-8-13-7-11-8-16-7-16-8-22-6-24-3-16-3-19v-9l2-6 4-3 91-1 33-1 11-3 18-10 13-8 8-4 10-7 11-6 7-4 18-11 15-9 18-11 10-5 9-6 17-9h12l11 7 8 5 11 6 13 7 3 2v2l4 2 20 12 9 7 2 4-1 7-7 8-3 4 2 5 10 7 5 1 5-4 5-7 8-5 8 1 22 13 13 6 7-1 1-9-1-2-7-4-10-8-11-7-6-6v-7l5-12 5-18 2-13v-28l-5-21-12-24v-6l3-5 11-6 12-8 9-5 12-7 17-11 14-9 15-10 15-9 13-7 20-12 14-9 9-5zm0 4-21 12-10 7-12 7-10 6-16 9-9 6-22 14-14 9-21 13-14 8-14 9-2 2v7l9 17 4 11 3 13v36l-4 19-8 20 1 6 9 7 16 11 9 6 2 3v5l-6 8-7 1-11-5-14-8-12-7h-7l-4 3v2h-2l-7 9-4 2-5-1-11-7-5-4v-7l3-3v-2l3-1v-2l3-1 2-3v-5l-9-8-18-11-14-10-13-7-16-9-10-6h-7l-11 6-16 9-14 8-16 10-13 8-15 9-16 9-21 13-22 13-15 7-7 2-81 1-43 1-3 3v14l2 16 3 16 5 17 2 9 12 30 6 12 6 11 9 15 8 11 14 17 9 10 8 9 8 7 3 3h2l1 3 13 10 9 7 10 7 13 8 17 10 23 11 23 9 22 6 17 4 25 3h42l21-2 12-2 13-3 26-7 25-9 15-8 12-6 14-8 10-7 12-8 11-10 14-11 8-8v-2l3-1 9-11 12-14 14-20 13-22 9-17 10-24 5-16 4-15 4-20 3-17 1-27 1-10 1-57v-188l-2-4z" fill="#384046"/>
<path transform="translate(1097,1090)" d="m0 0h9l19 10 11 7 12 7 19 12 7 5 10 5 6 5 9 5 15 9 9 6 16 8 16 9 17 11 22 15 11 7 9 6 4 4v7l-9 8-14 8-13 9-9 5-14 9-11 7-10 6-8 5-9 5-7 5-9 5-9 6-12 7-4 3-8 4-8 5-7 4-11 8-11 7-10 6-11 7-11 6-15 9-12 8-7 4-10 7-13 8-4 1-4-1-3-5-1-67-9 3-3 7-1 48-3 5-2 2-7-1-18-12v-2l-5-2-11-6v-2l-5-1-19-11-8-4-9-6-13-8-12-7-16-10-22-13-11-8-9-5-13-8-16-10-11-7-3-1v-2l-4-1-12-7-10-6-12-7-11-8-9-4-4-4v-8l5-6 11-6 20-14 16-11 11-6 10-6 12-7 9-5 16-10 6-2v-2l8-4 10-7 20-12 10-7 9-5 8-5 15-9 12-5h7l6 3 14 10 17 8 9 4 3 1 11 1h19l13-2 16-8 11-7 11-8zm3 3-7 4-17 12-10 6-13 6-24 3-18-2-14-5-14-7-14-9-7-5h-9l-16 8-15 9-11 7-8 5-14 9-16 10-26 16-19 11-29 17-11 7-8 6-12 8-17 11-2 3 1 5 9 6 13 8 20 12 22 13 26 16 24 15 11 7 20 12 19 12 40 24 19 11 15 9 12 8 11 7h4l2-4 1-11v-33l2-9 7-6 2-1h8l1 67 2 4h6l22-14 16-10 13-8 11-7 9-5 15-9 14-9 12-9 11-6 17-10 15-9 13-8 15-10 8-4 5-3 22-14 26-16 1-2 10-5 11-8 2-2v-5l-9-7-10-6-30-20-11-7-16-9-23-13-23-14-9-6-15-9-11-7-12-8-11-6-13-8-15-8z" fill="#384046"/>
<path transform="translate(319,721)" d="m0 0h5l5 6 11 23 7 12 7 11 12 13 6 5 11 8 19 12 8 6 16 6 10 4 9 2 3 1 19 2h18l24-2 13-4 16-6 16-8 15-9 9-7 14-10 2-1h7l16 8 12 7 10 5 14 9 15 10 16 10 9 6 2 2v8l-5 6-11 7-15 9h-2v2l-11 6-13 8-8 4-11 7-10 7-5 3h-3v2l-11 7-16 11-17 10-9 6-13 8-13 7-15 10-14 8-15 11-9 6-14 9-18 11-7 5-3 1h-12l-9-7-12-9-10-9-11-10-12-16-10-13-7-12-9-15-8-16-8-21-3-9-7-31-2-16-2-18v-45l4-30 2-9 4-9zm0 5-4 6-4 16-2 20-1 9v42l4 31 3 17 5 16 4 13 8 21 8 15 10 16 7 11 10 13 11 14 8 7 9 9 9 6 9 8 4 2h8l10-6 9-6 8-4 9-6 11-8 24-16 20-12 9-6 11-6 21-13 15-9 10-7 11-7 10-7 18-11 9-6 16-9 6-4 9-5 13-8 10-7 6-4 1-1v-7l-9-6-13-8-10-7-26-16-15-8-10-6-7-3h-7l-19 14-11 7-17 10-13 5-12 5-16 4-18 2h-21l-22-3-20-6-17-7-16-11-14-9-12-9-10-10-8-11-9-14-13-27-2-3z" fill="#384046"/>
<path transform="translate(1355,868)" d="m0 0 5 1 6 3 21 14 9 5 15 10 13 8 11 6 9 5 11 7v2l6 2 11 7 15 10 7 4 11 7 12 7 11 7 12 7 19 12 15 9 13 8 8 5 11 6 13 9 1 2v6l-5 5-14 10-14 9-18 13-16 10-12 7-10 7-15 9-14 8-8 6-15 9-24 16-18 10-9 6-12 7-16 11-9 6-5 4-8 4-9 6-7 4-3 2h-5l-3-4-1-5-1-43v-275l2-8zm1 4-3 3-1 257 1 67 3 3 6-1 10-7 16-10 15-10 10-7 18-11 27-16 12-8 17-11 10-6 10-7 14-8 11-7 15-9 14-9 17-12 18-12 16-11 4-4-1-5-11-8-18-10-19-12-12-7-14-9-9-6-10-5-10-7-16-9-11-7-23-15-14-9-20-12-18-10-13-9-17-10-8-6-11-7z" fill="#384046"/>
<path transform="translate(701,866)" d="m0 0h6l3 3 2 9-1 318-2 4-4 2-7-1-11-7-7-6-9-5-13-9-18-10-8-5-16-8-17-10-16-10-18-12-9-5-21-13-19-12-14-8-15-10v-2l-4-1-15-10-13-8-13-9-3-4v-6l5-5 9-6 18-11 21-13 15-11 9-5 7-5 11-6 20-12 16-10 26-16 13-9 14-8 9-5 12-7 6-5 10-5 21-14 13-9zm-1 4-10 6-11 8-15 9-17 11-15 9-9 5-17 10-10 7-32 20-9 6-11 6-15 9-13 8-39 26-6 3-13 8-12 8-4 4 2 5 10 7 13 8 9 6 16 11 15 10 13 7 11 7 9 6 9 5 11 7 13 8 14 9 13 8 16 10 15 8 11 6 14 8 12 8 17 11 14 10h6l3-4v-321l-2-3z" fill="#384046"/>
<path transform="translate(1324,868)" d="m0 0 6 2 3 7 1 13-1 308-3 5-1 1-9-1-6-5-11-6-20-12-7-5-10-5-18-11-14-7-3-2v-2l-5-1-14-9-8-6-9-5-10-6-11-6-11-7-10-6-9-6-14-9-10-6v-2l-5-2v-2h-2l-1-2v-7l5-18 1-11v-18l-2-9v-13l5-6 16-10 9-6 13-8 35-21 11-6 9-6 11-7 13-8 15-10h3v-2l10-5 7-5 10-5 10-7 10-6 7-5zm0 4-9 4-20 12-17 11-26 15-11 7-13 8-17 11-11 7-8 5-11 6-17 10-20 13-7 4-8 6-6 3-4 5 1 16 2 10-1 12-2 16-4 15 2 6 14 10 16 10 11 7 22 13 25 15 9 6 18 11 13 8 27 15 16 10 20 12 11 7 5 3 4-2 1-1 1-58v-261l-2-5z" fill="#384046"/>
<path transform="translate(1039,677)" d="m0 0h8l7 4 18 12 11 6 14 9 11 7 12 6 14 8 11 7 18 11 19 12 21 13 17 10 9 6 11 6 12 7 11 6 13 8 19 12 10 6 9 7 3 3v8l-8 7-15 9-14 9-9 5-12 8-7 4-10 6-9 5-8 5-14 9-33 22-9 5-11 8-11 7-27 15-7 5-6 1-5-2-12-11-16-10-4-3-7-4-15-7-8-3-4-7-1-185v-66zm4 3-4 2-1 3v60l1 189 5 5 12 5 9 4 15 9 10 7 11 9 3 3 5 1 10-5 16-9 13-8 15-10 16-10 30-20 20-12 7-5 11-6 24-15 12-7 21-13 8-6 1-1-1-7-8-6-9-6-9-5-9-6-11-7-19-11-11-6-14-8-10-6-21-13-24-15-11-7-26-16-19-11-12-6-15-10-17-10-11-7-9-6z" fill="#384046"/>
<path transform="translate(1012,677)" d="m0 0h6l5 5v37l-1 217-4 5-19 8-17 9-12 8-7 7-8 4-9-2-10-6-22-12-21-13-10-6-10-7-19-12-11-7-9-6-24-14-11-6-14-9-9-5-17-10-10-6-6-5v-9l9-7 13-7 10-7 16-10 21-13 9-6 11-6 20-12 14-9 22-13 30-20 16-9 26-15 12-8 11-6 26-16zm-1 4-9 6-11 6-10 6-18 11-7 5-12 6-14 8-13 8-14 9-10 7-20 12-13 8-14 9-29 17-11 7-23 14-18 12-17 10-1 1v6l4 4 13 8 19 11 27 16 29 17 34 22 12 8 14 8 9 6 11 7 12 6 17 10 7 1 6-3 11-10 7-4 13-8 13-6 10-4 3-2 1-3v-250l-1-2z" fill="#384046"/>
<path transform="translate(1584,546)" d="m0 0h25l14 3 17 5 14 5 15 8 16 11 6 5 7 8 10 12 7 11 8 19 4 13 2 11v43l-3 17-6 17-8 15-4 8-12 16-17 17-23 14-20 8-16 5-22 3h-19l-22-3-22-8-16-8-15-9-7-6-7-8-8-9-9-13-8-18-3-9-4-20-1-10v-26l4-26 5-14 9-19 5-9 8-10 14-14 9-7 11-8 20-10 18-6 13-2 2-1zm-2 4-23 4-19 7-12 6-13 8-12 10-13 13-11 15-8 17-6 15-4 20v42l4 19 7 19 5 10 7 10 9 11 12 12 8 5 7 4 11 6 22 9 14 3 12 1h20l17-2 11-3 15-5 16-8 16-9 13-12 7-7 10-14 6-10 5-12 5-10 3-9 3-18v-36l-4-19-3-10-5-11-5-10-6-8-9-11h-2l-2-4-10-9-10-7-10-6-14-6-22-7-16-3z" fill="#384046"/>
<path transform="translate(468,545)" d="m0 0h25l15 1 9 3 20 7 17 8 12 9 11 9 10 11 12 17 5 10 9 23 2 25v24l-2 26-10 25-6 11-8 13-10 14-9 9-15 10-16 8-12 5-18 5-18 2h-25l-21-3-22-8-20-8-22-14-16-16-6-9-6-11-9-20-5-15-3-18v-34l4-19 10-28 5-9 15-20h2l2-4 10-8h2v-2l13-9 18-9 13-4 4-2 10-2 5-2zm-6 4-12 1-18 5-21 8-16 9-10 8-11 9-8 10-9 12-10 23-6 19-3 23v12l3 23 6 18 4 10 10 19 7 11 15 15 14 9 10 6 34 13 13 3 12 1h25l18-2 19-5 22-10 16-11 10-9 10-13 6-11 5-9 6-11 7-21 2-23v-20l-2-23-4-13-5-13-7-13-12-16-9-10-14-11-10-6-15-7-16-6-8-2-10-2z" fill="#384046"/>
<path transform="translate(1024,260)" d="m0 0h11l18 1 17 5 18 6 16 9 8 6 9 7 17 17 8 11 8 13 5 12 5 17 3 15v36l-5 22-6 16-8 14-8 12-9 11-10 10-7 8-15 10-9 5-19 8-16 4-9 1h-33l-14-2-17-5-18-8-9-6v-2l-5-2-10-8-8-8-9-11-13-18-4-9-6-15-4-17-2-19v-17l2-22 5-19 8-16 5-9 10-14 5-6 1-2h2l2-4h2l1-3h2l1-3 10-7 12-8 15-8 21-6 7-1zm-6 4-15 1-16 4-10 3-18 10-11 8-10 8-12 14-6 8-8 13-5 10-6 15-3 18v41l4 19 6 17 7 14 10 14 13 15 12 11 9 6 5 4 18 8 21 6 16 2h22l19-3 16-5 18-8 13-9 8-6 8-8 7-8 10-13 9-15 7-14 4-13 3-14v-39l-5-22-5-15-11-18-9-12h-2l-2-4-3-3h-2l-1-3h-2l-2-4-13-10-12-8-16-7-25-7-17-1z" fill="#384046"/>
<path transform="translate(458,1242)" d="m0 0h18l21 2 14 4 18 6 12 7 14 9 10 9 5 5 6 7 7 12 7 10 10 29 3 17v40l-3 15-5 15-8 17-11 18-3 4h-2l-2 4-5 6-8 7h-2v2l-9 6-16 9-10 5-11 4-10 3-14 2h-25l-14-2-14-4-16-6-14-7-11-7-9-6-11-9-11-11-9-14-7-14-6-14-4-15-2-16v-15l3-20 5-19 4-11 3-7 8-16 6-11h2l2-4 3-5h2l1-3 11-9 11-8 10-6 13-5 10-4 14-4zm-4 4-19 3-13 4-13 5-12 6-10 7-11 9-9 9-7 10-10 19-6 14-6 19-3 19-1 16 2 16 3 15 9 23 6 10 8 11 8 9 8 7 10 8 20 12 13 6 18 6 13 3 10 1h12l16-1 15-4 17-6 21-12 12-9 5-4 7-8 9-11 6-11 8-16 6-16 3-14 1-10v-22l-2-16-3-14-6-18-6-12-6-9-10-14-13-12-17-11-12-6-19-7-16-3-13-1z" fill="#384046"/>
<path transform="translate(735,866)" d="m0 0 9 3 9 6 34 20 9 4 7 4 23 14 10 7 16 10 36 21 11 6 13 8 17 11 10 6 6 7v8l-3 12-1 9v17l2 13 3 13 1 2v6l-3 5-9 7-9 5-10 8-15 9-11 7-13 8-14 8-11 7-14 10-10 6-15 10-16 8-18 11-11 7-11 6-14 9-4 2h-6l-4-4-1-4v-324l3-7zm0 4-4 4v324l3 4 8-1 9-6 15-9 21-13 17-10 11-6 18-11 13-9 14-9 16-10 6-3 13-8 14-9 9-6 10-7 9-6 6-6-1-9-4-18v-28l3-15v-9l-5-5-15-10-19-12-23-13-14-8-24-14-10-7-12-8-16-10-16-8-18-10-18-11-5-4-9-4z" fill="#384046"/>
<path transform="translate(1577,1240)" d="m0 0h21l23 4 13 4 10 3 10 4 9 6 16 11 12 11 10 13 11 18 7 15 5 15 3 11 1 10v25l-2 14-4 15-3 8-6 13-6 12-13 16-9 10-8 7-11 9-16 10-13 5-12 5-17 4h-30l-21-3-21-8-16-8-24-16-7-6v-2l-3-1-9-12-7-10-6-13-3-8-4-10-4-15-2-18v-15l2-22 2-6 2-9 2-6 5-13 10-19 9-12h2l2-4 13-13 11-8 15-8 11-4 15-5 16-3zm-3 4-22 4-19 6-16 8-12 8-5 4v2l-4 2-12 12-10 15-9 17-4 11-6 24-1 9v25l3 17 5 18 7 16 6 11 10 14 13 13 14 10 11 7 19 9 17 6 18 3h28l17-4 17-6 9-4 15-9 10-8 12-11 12-14 10-14 8-17 4-10 4-15 1-8v-33l-2-12-3-12-10-22-7-12-13-17-10-10-11-8-15-10-16-6-16-5-21-4z" fill="#384046"/>
<path transform="translate(1110,524)" d="m0 0h7l5 3 3 4v2h2l7 9 8 10 8 8 2 5v6l-5 6-17 10-21 14-12 7-21 14-8 4-14 8-18 11-2 1-9-1-13-9-16-8-19-11-13-8-14-9-7-5-16-8-4-5v-6l5-8 10-12 7-9 6-7 9-5 5-1 15 5 10 3 22 2 8 1h18l26-3 16-4 10-4 19-9zm1 4-23 11-21 6-16 2-5 1h-35l-12-2-12-1-21-7-6 1-9 6-9 11-13 16-2 3v6l4 4 18 10 10 7 11 6 19 12 16 9 12 6 11 7 8-1 15-9 14-8 17-10 15-10 13-8 11-7 19-12 8-6v-6l-3-5-5-5-9-11-9-10-4-5z" fill="#384046"/>
<path transform="translate(1022,955)" d="m0 0h15l10 2 15 5 16 9 7 6 6 8 7 12 3 10 2 14v18l-3 17-5 12-8 10-7 9-7 5-5 5-20 9-10 1h-15l-13-2-10-4-16-9-9-7-4-6-4-4-5-7-4-12-3-16v-17l4-18 8-16 6-8 5-6 14-10 6-3 11-4 6-2zm-3 4-14 4-9 4-10 6v2l-4 2-5 4-7 10-4 6-6 15-2 14v13l3 16 7 16 8 9 5 5 11 8 14 7 12 3 13 1 13-1 16-6 8-5 13-11 10-13 6-14 3-15v-17l-3-16-4-10-7-12-5-6-10-7-11-6-21-6z" fill="#384046"/>
<path transform="translate(912,599)" d="m0 0h7l19 10 12 7 12 6 5 3v2l5 2 25 15 6 4 4 5v8l-5 5-10 6-13 8-11 6-10 7-12 7-13 8-9 5h-7l-5-3-8-15-5-14-2-9-1-11v-13l2-19 4-16 4-8zm0 4-7 11-4 14-1 13v26l1 10 7 19 7 11 3 2 7-1 11-6 13-8 24-15 10-5 11-8 9-6v-7l-6-5-11-6-10-6-15-10-9-5-24-13-9-5z" fill="#384046"/>
<path transform="translate(1133,1361)" d="m0 0h6l5 4 9 20 4 13 2 14-1 18-1 9-8 22-5 6-2 1h-7l-12-7-10-6-13-7v-2l-5-2-15-9v-2l-7-2-13-8-6-6v-6l4-5 15-8 10-7 14-9 20-12 11-6zm0 4-28 16-11 7-15 10-15 9-6 5v5l8 6 16 9 28 18 11 6 16 9 5-1 4-5 4-9 3-9 2-15v-17l-3-15-4-12-7-14-3-3z" fill="#384046"/>
</svg>
